<?xml version="1.0" encoding="UTF-8" standalone="no"?>
<!DOCTYPE svg PUBLIC "-//W3C//DTD SVG 1.1//EN"
 "http://www.w3.org/Graphics/SVG/1.1/DTD/svg11.dtd">
<!-- Generated by graphviz version 2.38.0 (20140413.2041)
 -->
<!-- Title: G Pages: 1 -->
<svg width="807pt" height="534pt"
 viewBox="0.00 0.00 807.00 534.00" xmlns="http://www.w3.org/2000/svg" xmlns:xlink="http://www.w3.org/1999/xlink">
<g id="graph0" class="graph" transform="scale(1 1) rotate(0) translate(4 530)">
<title>G</title>
<polygon fill="white" stroke="none" points="-4,4 -4,-530 803,-530 803,4 -4,4"/>
<!-- apparat/object -->
<g id="node1" class="node"><title>apparat/object</title>
<path fill="#eeeeee" stroke="black" stroke-width="2" d="M419,-526C419,-526 347,-526 347,-526 341,-526 335,-520 335,-514 335,-514 335,-502 335,-502 335,-496 341,-490 347,-490 347,-490 419,-490 419,-490 425,-490 431,-496 431,-502 431,-502 431,-514 431,-514 431,-520 425,-526 419,-526"/>
<text text-anchor="middle" x="383" y="-504.3" font-family="Times New Roman,serif" font-size="14.00" fill="#314b5f">apparat/object</text>
</g>
<!-- php -->
<g id="node2" class="node"><title>php</title>
<path fill="#eeeeee" stroke="black" d="M355,-36C355,-36 325,-36 325,-36 319,-36 313,-30 313,-24 313,-24 313,-12 313,-12 313,-6 319,-0 325,-0 325,-0 355,-0 355,-0 361,-0 367,-6 367,-12 367,-12 367,-24 367,-24 367,-30 361,-36 355,-36"/>
<text text-anchor="middle" x="340" y="-14.3" font-family="Times New Roman,serif" font-size="14.00" fill="#314b5f">php</text>
</g>
<!-- apparat/object&#45;&gt;php -->
<g id="edge1" class="edge"><title>apparat/object&#45;&gt;php</title>
<path fill="none" stroke="#1a2833" d="M334.881,-506.805C232.015,-505.088 0,-493.709 0,-426 0,-426 0,-426 0,-100 0,-38.3378 214.294,-23.5304 302.626,-20.046"/>
<polygon fill="#1a2833" stroke="#1a2833" points="302.886,-23.5389 312.751,-19.6748 302.63,-16.5436 302.886,-23.5389"/>
<text text-anchor="middle" x="14.5" y="-260.5" font-family="Times New Roman,serif" font-size="10.00" fill="#767676">&gt;=5.6.0</text>
</g>
<!-- apparat/resource -->
<g id="node3" class="node"><title>apparat/resource</title>
<path fill="#eeeeee" stroke="black" d="M353,-443C353,-443 199,-443 199,-443 193,-443 187,-437 187,-431 187,-431 187,-419 187,-419 187,-413 193,-407 199,-407 199,-407 353,-407 353,-407 359,-407 365,-413 365,-419 365,-419 365,-431 365,-431 365,-437 359,-443 353,-443"/>
<text text-anchor="middle" x="276" y="-421.3" font-family="Times New Roman,serif" font-size="14.00" fill="#314b5f">apparat/resource: dev&#45;master</text>
</g>
<!-- apparat/object&#45;&gt;apparat/resource -->
<g id="edge2" class="edge"><title>apparat/object&#45;&gt;apparat/resource</title>
<path fill="none" stroke="#1a2833" d="M360.308,-489.822C344.703,-478.009 323.794,-462.18 306.703,-449.242"/>
<polygon fill="#1a2833" stroke="#1a2833" points="308.745,-446.398 298.659,-443.153 304.52,-451.98 308.745,-446.398"/>
<text text-anchor="middle" x="358.5" y="-464" font-family="Times New Roman,serif" font-size="10.00" fill="#767676">dev&#45;master</text>
</g>
<!-- dominicsayers/isemail -->
<g id="node4" class="node"><title>dominicsayers/isemail</title>
<path fill="#eeeeee" stroke="black" d="M757,-443C757,-443 575,-443 575,-443 569,-443 563,-437 563,-431 563,-431 563,-419 563,-419 563,-413 569,-407 575,-407 575,-407 757,-407 757,-407 763,-407 769,-413 769,-419 769,-419 769,-431 769,-431 769,-437 763,-443 757,-443"/>
<text text-anchor="middle" x="666" y="-421.3" font-family="Times New Roman,serif" font-size="14.00" fill="#314b5f">dominicsayers/isemail: dev&#45;master</text>
</g>
<!-- apparat/object&#45;&gt;dominicsayers/isemail -->
<g id="edge3" class="edge"><title>apparat/object&#45;&gt;dominicsayers/isemail</title>
<path fill="none" stroke="#1a2833" d="M431.284,-497.194C461.093,-490.798 500.006,-481.832 534,-472 559.715,-464.563 587.776,-454.994 611.387,-446.512"/>
<polygon fill="#1a2833" stroke="#1a2833" points="612.664,-449.772 620.875,-443.077 610.281,-443.191 612.664,-449.772"/>
<text text-anchor="middle" x="589.5" y="-464" font-family="Times New Roman,serif" font-size="10.00" fill="#767676">dev&#45;master</text>
</g>
<!-- league/commonmark -->
<g id="node5" class="node"><title>league/commonmark</title>
<path fill="#eeeeee" stroke="black" d="M194.5,-335C194.5,-335 45.5,-335 45.5,-335 39.5,-335 33.5,-329 33.5,-323 33.5,-323 33.5,-311 33.5,-311 33.5,-305 39.5,-299 45.5,-299 45.5,-299 194.5,-299 194.5,-299 200.5,-299 206.5,-305 206.5,-311 206.5,-311 206.5,-323 206.5,-323 206.5,-329 200.5,-335 194.5,-335"/>
<text text-anchor="middle" x="120" y="-313.3" font-family="Times New Roman,serif" font-size="14.00" fill="#314b5f">league/commonmark: 0.13.4</text>
</g>
<!-- apparat/object&#45;&gt;league/commonmark -->
<g id="edge4" class="edge"><title>apparat/object&#45;&gt;league/commonmark</title>
<path fill="none" stroke="#1a2833" d="M334.845,-506.358C283.94,-503.054 204.568,-490.009 157,-443 130.736,-417.044 122.92,-373.4 120.706,-345.156"/>
<polygon fill="#1a2833" stroke="#1a2833" points="124.199,-344.927 120.105,-335.155 117.211,-345.347 124.199,-344.927"/>
<text text-anchor="middle" x="167.5" y="-422.5" font-family="Times New Roman,serif" font-size="10.00" fill="#767676">^0.13</text>
</g>
<!-- psr/http&#45;message -->
<g id="node6" class="node"><title>psr/http&#45;message</title>
<path fill="#eeeeee" stroke="black" d="M493,-389C493,-389 371,-389 371,-389 365,-389 359,-383 359,-377 359,-377 359,-365 359,-365 359,-359 365,-353 371,-353 371,-353 493,-353 493,-353 499,-353 505,-359 505,-365 505,-365 505,-377 505,-377 505,-383 499,-389 493,-389"/>
<text text-anchor="middle" x="432" y="-367.3" font-family="Times New Roman,serif" font-size="14.00" fill="#314b5f">psr/http&#45;message: 1.0.1</text>
</g>
<!-- apparat/object&#45;&gt;psr/http&#45;message -->
<g id="edge5" class="edge"><title>apparat/object&#45;&gt;psr/http&#45;message</title>
<path fill="none" stroke="#1a2833" d="M389.206,-489.902C397.518,-467.002 412.357,-426.119 422.19,-399.027"/>
<polygon fill="#1a2833" stroke="#1a2833" points="425.568,-399.98 425.69,-389.385 418.988,-397.591 425.568,-399.98"/>
<text text-anchor="middle" x="408.5" y="-464" font-family="Times New Roman,serif" font-size="10.00" fill="#767676">~1.0</text>
</g>
<!-- apparat/kernel -->
<g id="node7" class="node"><title>apparat/kernel</title>
<path fill="#eeeeee" stroke="black" d="M611.5,-335C611.5,-335 472.5,-335 472.5,-335 466.5,-335 460.5,-329 460.5,-323 460.5,-323 460.5,-311 460.5,-311 460.5,-305 466.5,-299 472.5,-299 472.5,-299 611.5,-299 611.5,-299 617.5,-299 623.5,-305 623.5,-311 623.5,-311 623.5,-323 623.5,-323 623.5,-329 617.5,-335 611.5,-335"/>
<text text-anchor="middle" x="542" y="-313.3" font-family="Times New Roman,serif" font-size="14.00" fill="#314b5f">apparat/kernel: dev&#45;master</text>
</g>
<!-- apparat/object&#45;&gt;apparat/kernel -->
<g id="edge6" class="edge"><title>apparat/object&#45;&gt;apparat/kernel</title>
<path fill="none" stroke="#1a2833" stroke-dasharray="5,2" d="M405.237,-489.726C431.757,-468.281 476.229,-429.551 506,-389 516.004,-375.374 524.666,-358.561 530.985,-344.717"/>
<polygon fill="#1a2833" stroke="#1a2833" points="534.328,-345.811 535.158,-335.249 527.923,-342.988 534.328,-345.811"/>
<text text-anchor="middle" x="504.5" y="-422.5" font-family="Times New Roman,serif" font-size="10.00" fill="#767676">@dev</text>
</g>
<!-- apparat/resource&#45;&gt;php -->
<g id="edge13" class="edge"><title>apparat/resource&#45;&gt;php</title>
<path fill="none" stroke="#1a2833" d="M276.663,-406.948C278.341,-368.316 283.538,-271.238 296,-191 305.581,-129.311 309.203,-113.838 327,-54 327.787,-51.3536 328.672,-48.619 329.601,-45.8987"/>
<polygon fill="#1a2833" stroke="#1a2833" points="332.965,-46.8869 333.058,-36.2925 326.378,-44.5165 332.965,-46.8869"/>
<text text-anchor="middle" x="310.5" y="-206.5" font-family="Times New Roman,serif" font-size="10.00" fill="#767676">&gt;=5.6.0</text>
</g>
<!-- apparat/resource&#45;&gt;league/commonmark -->
<g id="edge12" class="edge"><title>apparat/resource&#45;&gt;league/commonmark</title>
<path fill="none" stroke="#1a2833" d="M228.096,-406.987C216.509,-401.956 204.459,-395.914 194,-389 174.269,-375.958 155.089,-357.333 141.201,-342.431"/>
<polygon fill="#1a2833" stroke="#1a2833" points="143.772,-340.055 134.446,-335.026 138.601,-344.773 143.772,-340.055"/>
<text text-anchor="middle" x="204.5" y="-368.5" font-family="Times New Roman,serif" font-size="10.00" fill="#767676">^0.13</text>
</g>
<!-- apparat/resource&#45;&gt;apparat/kernel -->
<g id="edge11" class="edge"><title>apparat/resource&#45;&gt;apparat/kernel</title>
<path fill="none" stroke="#1a2833" d="M281.987,-406.877C289.086,-387.011 300.52,-356.512 305,-353 327.388,-335.451 393.515,-326.663 450.248,-322.284"/>
<polygon fill="#1a2833" stroke="#1a2833" points="450.637,-325.765 460.354,-321.542 450.124,-318.784 450.637,-325.765"/>
<text text-anchor="middle" x="327.5" y="-368.5" font-family="Times New Roman,serif" font-size="10.00" fill="#767676">dev&#45;master</text>
</g>
<!-- symfony/yaml -->
<g id="node11" class="node"><title>symfony/yaml</title>
<path fill="#eeeeee" stroke="black" d="M248.5,-281C248.5,-281 135.5,-281 135.5,-281 129.5,-281 123.5,-275 123.5,-269 123.5,-269 123.5,-257 123.5,-257 123.5,-251 129.5,-245 135.5,-245 135.5,-245 248.5,-245 248.5,-245 254.5,-245 260.5,-251 260.5,-257 260.5,-257 260.5,-269 260.5,-269 260.5,-275 254.5,-281 248.5,-281"/>
<text text-anchor="middle" x="192" y="-259.3" font-family="Times New Roman,serif" font-size="14.00" fill="#314b5f">symfony/yaml: v3.2.1</text>
</g>
<!-- apparat/resource&#45;&gt;symfony/yaml -->
<g id="edge14" class="edge"><title>apparat/resource&#45;&gt;symfony/yaml</title>
<path fill="none" stroke="#1a2833" d="M259.032,-406.82C254.351,-401.431 249.58,-395.25 246,-389 224.973,-352.289 233.651,-336.973 215,-299 213.526,-295.998 211.838,-292.945 210.062,-289.955"/>
<polygon fill="#1a2833" stroke="#1a2833" points="212.892,-287.882 204.593,-281.296 206.974,-291.62 212.892,-287.882"/>
<text text-anchor="middle" x="254" y="-368.5" font-family="Times New Roman,serif" font-size="10.00" fill="#767676">^3.1</text>
</g>
<!-- league/commonmark&#45;&gt;php -->
<g id="edge16" class="edge"><title>league/commonmark&#45;&gt;php</title>
<path fill="none" stroke="#1a2833" d="M118.859,-298.887C118.277,-284.39 118.334,-263.13 122,-245 132.208,-194.52 138.334,-181.651 164,-137 188.336,-94.6616 194.496,-79.7335 236,-54 256.593,-41.2319 282.395,-32.5115 303.146,-26.9686"/>
<polygon fill="#1a2833" stroke="#1a2833" points="304.05,-30.3502 312.883,-24.4989 302.329,-23.565 304.05,-30.3502"/>
<text text-anchor="middle" x="178.5" y="-152.5" font-family="Times New Roman,serif" font-size="10.00" fill="#767676">&gt;=5.4.8</text>
</g>
<!-- ext&#45;mbstring -->
<g id="node12" class="node"><title>ext&#45;mbstring</title>
<path fill="#eeeeee" stroke="black" d="M102,-227C102,-227 40,-227 40,-227 34,-227 28,-221 28,-215 28,-215 28,-203 28,-203 28,-197 34,-191 40,-191 40,-191 102,-191 102,-191 108,-191 114,-197 114,-203 114,-203 114,-215 114,-215 114,-221 108,-227 102,-227"/>
<text text-anchor="middle" x="71" y="-205.3" font-family="Times New Roman,serif" font-size="14.00" fill="#314b5f">ext&#45;mbstring</text>
</g>
<!-- league/commonmark&#45;&gt;ext&#45;mbstring -->
<g id="edge15" class="edge"><title>league/commonmark&#45;&gt;ext&#45;mbstring</title>
<path fill="none" stroke="#1a2833" d="M101.132,-298.833C96.2384,-293.536 91.3959,-287.4 88,-281 80.8747,-267.571 76.6944,-251.141 74.2637,-237.47"/>
<polygon fill="#1a2833" stroke="#1a2833" points="77.6627,-236.549 72.6665,-227.207 70.7459,-237.626 77.6627,-236.549"/>
<text text-anchor="middle" x="91" y="-260.5" font-family="Times New Roman,serif" font-size="10.00" fill="#767676">*</text>
</g>
<!-- psr/http&#45;message&#45;&gt;php -->
<g id="edge20" class="edge"><title>psr/http&#45;message&#45;&gt;php</title>
<path fill="none" stroke="#1a2833" d="M415.594,-352.808C392.742,-327.582 352.302,-277.981 336,-227 316.106,-164.788 326.315,-86.6759 334.024,-46.172"/>
<polygon fill="#1a2833" stroke="#1a2833" points="337.478,-46.7448 336.007,-36.2526 330.614,-45.3722 337.478,-46.7448"/>
<text text-anchor="middle" x="350.5" y="-206.5" font-family="Times New Roman,serif" font-size="10.00" fill="#767676">&gt;=5.3.0</text>
</g>
<!-- apparat/kernel&#45;&gt;php -->
<g id="edge9" class="edge"><title>apparat/kernel&#45;&gt;php</title>
<path fill="none" stroke="#1a2833" d="M561.312,-298.837C594.575,-267.089 656.577,-196.958 629,-137 585.579,-42.5926 445.076,-23.4093 377.277,-19.7271"/>
<polygon fill="#1a2833" stroke="#1a2833" points="377.195,-16.2198 367.046,-19.2601 376.876,-23.2125 377.195,-16.2198"/>
<text text-anchor="middle" x="650.5" y="-152.5" font-family="Times New Roman,serif" font-size="10.00" fill="#767676">&gt;=5.6.0</text>
</g>
<!-- level&#45;2/dice -->
<g id="node8" class="node"><title>level&#45;2/dice</title>
<path fill="#eeeeee" stroke="black" d="M787,-173C787,-173 697,-173 697,-173 691,-173 685,-167 685,-161 685,-161 685,-149 685,-149 685,-143 691,-137 697,-137 697,-137 787,-137 787,-137 793,-137 799,-143 799,-149 799,-149 799,-161 799,-161 799,-167 793,-173 787,-173"/>
<text text-anchor="middle" x="742" y="-151.3" font-family="Times New Roman,serif" font-size="14.00" fill="#314b5f">level&#45;2/dice: 2.0.3</text>
</g>
<!-- apparat/kernel&#45;&gt;level&#45;2/dice -->
<g id="edge7" class="edge"><title>apparat/kernel&#45;&gt;level&#45;2/dice</title>
<path fill="none" stroke="#1a2833" d="M623.779,-301.949C638.431,-296.952 652.874,-290.179 665,-281 698.449,-255.679 720.717,-211.246 732.353,-182.744"/>
<polygon fill="#1a2833" stroke="#1a2833" points="735.631,-183.972 736.027,-173.384 729.115,-181.414 735.631,-183.972"/>
<text text-anchor="middle" x="705.5" y="-260.5" font-family="Times New Roman,serif" font-size="10.00" fill="#767676">2.*</text>
</g>
<!-- monolog/monolog -->
<g id="node9" class="node"><title>monolog/monolog</title>
<path fill="#eeeeee" stroke="black" d="M523.5,-227C523.5,-227 386.5,-227 386.5,-227 380.5,-227 374.5,-221 374.5,-215 374.5,-215 374.5,-203 374.5,-203 374.5,-197 380.5,-191 386.5,-191 386.5,-191 523.5,-191 523.5,-191 529.5,-191 535.5,-197 535.5,-203 535.5,-203 535.5,-215 535.5,-215 535.5,-221 529.5,-227 523.5,-227"/>
<text text-anchor="middle" x="455" y="-205.3" font-family="Times New Roman,serif" font-size="14.00" fill="#314b5f">monolog/monolog: 1.22.0</text>
</g>
<!-- apparat/kernel&#45;&gt;monolog/monolog -->
<g id="edge8" class="edge"><title>apparat/kernel&#45;&gt;monolog/monolog</title>
<path fill="none" stroke="#1a2833" d="M528.022,-298.969C513.9,-281.764 491.919,-254.982 475.761,-235.295"/>
<polygon fill="#1a2833" stroke="#1a2833" points="478.282,-232.85 469.232,-227.341 472.871,-237.291 478.282,-232.85"/>
<text text-anchor="middle" x="517.5" y="-260.5" font-family="Times New Roman,serif" font-size="10.00" fill="#767676">1.x</text>
</g>
<!-- vlucas/phpdotenv -->
<g id="node10" class="node"><title>vlucas/phpdotenv</title>
<path fill="#eeeeee" stroke="black" d="M615.5,-173C615.5,-173 482.5,-173 482.5,-173 476.5,-173 470.5,-167 470.5,-161 470.5,-161 470.5,-149 470.5,-149 470.5,-143 476.5,-137 482.5,-137 482.5,-137 615.5,-137 615.5,-137 621.5,-137 627.5,-143 627.5,-149 627.5,-149 627.5,-161 627.5,-161 627.5,-167 621.5,-173 615.5,-173"/>
<text text-anchor="middle" x="549" y="-151.3" font-family="Times New Roman,serif" font-size="14.00" fill="#314b5f">vlucas/phpdotenv: v2.4.0</text>
</g>
<!-- apparat/kernel&#45;&gt;vlucas/phpdotenv -->
<g id="edge10" class="edge"><title>apparat/kernel&#45;&gt;vlucas/phpdotenv</title>
<path fill="none" stroke="#1a2833" d="M542.749,-298.877C543.953,-271.354 546.331,-217.008 547.782,-183.849"/>
<polygon fill="#1a2833" stroke="#1a2833" points="551.295,-183.628 548.235,-173.485 544.301,-183.322 551.295,-183.628"/>
<text text-anchor="middle" x="552.5" y="-260.5" font-family="Times New Roman,serif" font-size="10.00" fill="#767676">2.*</text>
</g>
<!-- level&#45;2/dice&#45;&gt;php -->
<g id="edge17" class="edge"><title>level&#45;2/dice&#45;&gt;php</title>
<path fill="none" stroke="#1a2833" d="M734.192,-136.727C722.689,-113.509 698.83,-72.9652 665,-54 616.521,-26.8225 451.974,-20.7438 377.347,-19.3876"/>
<polygon fill="#1a2833" stroke="#1a2833" points="377.069,-15.8827 367.013,-19.2198 376.955,-22.8818 377.069,-15.8827"/>
<text text-anchor="middle" x="739.5" y="-98.5" font-family="Times New Roman,serif" font-size="10.00" fill="#767676">&gt;=5.6.0</text>
</g>
<!-- monolog/monolog&#45;&gt;php -->
<g id="edge18" class="edge"><title>monolog/monolog&#45;&gt;php</title>
<path fill="none" stroke="#1a2833" d="M457.274,-190.864C459.773,-165.429 461.096,-117.035 441,-83 426.686,-58.7565 399.191,-42.2376 376.498,-32.0631"/>
<polygon fill="#1a2833" stroke="#1a2833" points="377.692,-28.7679 367.119,-28.087 374.96,-35.2126 377.692,-28.7679"/>
<text text-anchor="middle" x="469.5" y="-98.5" font-family="Times New Roman,serif" font-size="10.00" fill="#767676">&gt;=5.3.0</text>
</g>
<!-- psr/log -->
<g id="node13" class="node"><title>psr/log</title>
<path fill="#eeeeee" stroke="black" d="M420,-119C420,-119 354,-119 354,-119 348,-119 342,-113 342,-107 342,-107 342,-95 342,-95 342,-89 348,-83 354,-83 354,-83 420,-83 420,-83 426,-83 432,-89 432,-95 432,-95 432,-107 432,-107 432,-113 426,-119 420,-119"/>
<text text-anchor="middle" x="387" y="-97.3" font-family="Times New Roman,serif" font-size="14.00" fill="#314b5f">psr/log: 1.0.2</text>
</g>
<!-- monolog/monolog&#45;&gt;psr/log -->
<g id="edge19" class="edge"><title>monolog/monolog&#45;&gt;psr/log</title>
<path fill="none" stroke="#1a2833" d="M438.345,-190.887C433.427,-185.403 428.233,-179.152 424,-173 414.363,-158.994 405.489,-142.164 398.848,-128.406"/>
<polygon fill="#1a2833" stroke="#1a2833" points="401.854,-126.572 394.429,-119.015 395.52,-129.553 401.854,-126.572"/>
<text text-anchor="middle" x="432.5" y="-152.5" font-family="Times New Roman,serif" font-size="10.00" fill="#767676">~1.0</text>
</g>
<!-- vlucas/phpdotenv&#45;&gt;php -->
<g id="edge23" class="edge"><title>vlucas/phpdotenv&#45;&gt;php</title>
<path fill="none" stroke="#1a2833" d="M542.286,-136.989C532.495,-114.455 512.124,-75.1024 482,-54 451.027,-32.3028 408.029,-24.0052 377.482,-20.8598"/>
<polygon fill="#1a2833" stroke="#1a2833" points="377.507,-17.3484 367.237,-19.9486 376.887,-24.3208 377.507,-17.3484"/>
<text text-anchor="middle" x="547.5" y="-98.5" font-family="Times New Roman,serif" font-size="10.00" fill="#767676">&gt;=5.3.9</text>
</g>
<!-- symfony/yaml&#45;&gt;php -->
<g id="edge22" class="edge"><title>symfony/yaml&#45;&gt;php</title>
<path fill="none" stroke="#1a2833" d="M191.385,-244.783C190.954,-205.375 195.581,-107.875 248,-54 262.58,-39.0152 284.236,-30.3593 302.876,-25.4054"/>
<polygon fill="#1a2833" stroke="#1a2833" points="303.945,-28.7484 312.856,-23.0175 302.316,-21.9405 303.945,-28.7484"/>
<text text-anchor="middle" x="218.5" y="-152.5" font-family="Times New Roman,serif" font-size="10.00" fill="#767676">&gt;=5.5.9</text>
</g>
<!-- psr/log&#45;&gt;php -->
<g id="edge21" class="edge"><title>psr/log&#45;&gt;php</title>
<path fill="none" stroke="#1a2833" d="M377.033,-82.822C370.677,-71.8682 362.317,-57.4616 355.149,-45.1084"/>
<polygon fill="#1a2833" stroke="#1a2833" points="357.999,-43.0461 349.953,-36.1533 351.945,-46.5592 357.999,-43.0461"/>
<text text-anchor="middle" x="381.5" y="-57" font-family="Times New Roman,serif" font-size="10.00" fill="#767676">&gt;=5.3.0</text>
</g>
</g>
</svg>
